# xmcd
#
# Track frame offsets:
#	150
#	17737
#	31803
#	51157
#	70257
#	87666
#	108153
#	123042
#	142400
#	161137
#	179913
#	199955
#
# Disc length: 2929 seconds
# Revision: 0
# Processed by: cddbd v1.5.2PL0 Copyright (c) Steve Scherf et al.
# Submitted via: dBpowerAMP V12.0
#
DISCID=b20b6f0c
DTITLE=Ne-Yo - Year Of The Gentleman
DYEAR=2008
DGENRE=pop
TTITLE0=Closer
TTITLE1=Nobody
TTITLE2=Single
TTITLE3=Mad
TTITLE4=Miss Independent
TTITLE5=Why Does She Stay
TTITLE6=Fade Into The Background
TTITLE7=So You Can Cry
TTITLE8=Part Of The List
TTITLE9=Back To What You Know
TTITLE10=Lie To Me
TTITLE11=Stop This World
EXTD=
EXTT0=
EXTT1=
EXTT2=
EXTT3=
EXTT4=
EXTT5=
EXTT6=
EXTT7=
EXTT8=
EXTT9=
EXTT10=
EXTT11=
PLAYORDER=
